<svg xmlns="http://www.w3.org/2000/svg" width="24" height="24" fill="none" viewBox="0 0 24 24" id="translate">
  <path fill="#1c8cff" d="M12 1.25C13.5188 1.25 14.75 2.48122 14.75 4V7.75H12C10.7835 7.75 9.68633 8.26113 8.91161 9.08034L8.7517 8.91411C9.26895 8.20474 9.7328 7.41823 10.0441 6.57759H11C11.4142 6.57759 11.75 6.2418 11.75 5.82759 11.75 5.41337 11.4142 5.07759 11 5.07759H8.45V5C8.45 4.58579 8.11421 4.25 7.7 4.25 7.28579 4.25 6.95 4.58579 6.95 5V5.07759H5C4.58579 5.07759 4.25 5.41337 4.25 5.82759 4.25 6.2418 4.58579 6.57759 5 6.57759H8.41754C8.23192 6.97006 8.00508 7.35646 7.74933 7.73274L7.74583 7.72789C7.54277 7.44628 7.40799 7.23194 7.36408 7.13771 7.1891 6.76227 6.74289 6.59977 6.36745 6.77475 5.99201 6.94973 5.82951 7.39594 6.00449 7.77138 6.11486 8.00819 6.32723 8.32519 6.52917 8.60523 6.61369 8.72245 6.7031 8.84233 6.79318 8.95952 6.30701 9.51464 5.79695 10.0168 5.32806 10.4479 5.02316 10.7283 5.00327 11.2028 5.28364 11.5077 5.56401 11.8126 6.03847 11.8324 6.34337 11.5521 6.79951 11.1326 7.3042 10.6391 7.79846 10.0868L8.07291 10.3722C7.86484 10.8735 7.75 11.4234 7.75 12V14.75H4C2.48122 14.75 1.25 13.5188 1.25 12V4C1.25 2.48122 2.48122 1.25 4 1.25H12zM16 14.6771L16.7865 16.25H15.2135L16 14.6771z" class="color000000 svgShape"></path>
  <path fill="#1c8cff" fill-rule="evenodd" d="M9.25 12C9.25 10.4812 10.4812 9.25 12 9.25H20C21.5188 9.25 22.75 10.4812 22.75 12V20C22.75 21.5188 21.5188 22.75 20 22.75H12C10.4812 22.75 9.25 21.5188 9.25 20V12ZM16.6708 12.6646C16.5438 12.4105 16.2841 12.25 16 12.25C15.7159 12.25 15.4562 12.4105 15.3292 12.6646L12.3292 18.6646C12.1439 19.0351 12.2941 19.4856 12.6646 19.6708C13.0351 19.8561 13.4856 19.7059 13.6708 19.3354L14.4635 17.75H17.5365L18.3292 19.3354C18.5144 19.7059 18.9649 19.8561 19.3354 19.6708C19.7059 19.4856 19.8561 19.0351 19.6708 18.6646L16.6708 12.6646Z" clip-rule="evenodd" class="color000000 svgShape"></path>
</svg>
