<svg width="128" height="128" viewBox="0 0 128 128" fill="none" xmlns="http://www.w3.org/2000/svg">
  <g clip-path="url(#clip0_1_2)">
    <rect width="128" height="128" rx="15" fill="#222222" />
    <rect x="1" width="127" height="128" rx="15" fill="#222222" />
    <path
      d="M11.856 21.152L2.376 15.344V13.616L11.856 7.76V11.216L6.552 14.408L11.856 17.648V21.152Z"
      fill="url(#paint0_linear_1_2)" />
    <path
      d="M101.648 123.912L109.28 101.088H112.64L105.008 123.912H101.648ZM115.657 118.152V114.672L120.961 111.456L115.657 108.24V104.736L125.113 110.544V112.272L115.657 118.152Z"
      fill="url(#paint1_linear_1_2)" />
    <path
      d="M18.1569 62.0936L40.8129 22.8522L55.6116 31.3962C59.7131 33.7642 62.7569 36.5562 64.743 39.7721C66.7661 43.0094 67.6924 46.5249 67.5221 50.3186C67.3887 54.1337 66.106 58.1474 63.674 62.3598C61.2846 66.4982 58.4898 69.5896 55.2895 71.634C52.1475 73.6628 48.6874 74.6212 44.9093 74.5091C41.1525 74.3601 37.1864 73.0802 33.011 70.6696L18.1569 62.0936ZM30.3068 59.3534L37.1796 63.3214C39.9139 64.9001 42.4111 65.6521 44.6712 65.5775C46.9313 65.5029 48.9827 64.7658 50.8253 63.3663C52.6679 61.9668 54.2826 60.0661 55.6692 57.6643C57.0132 55.3365 57.8306 53.0248 58.1213 50.7292C58.4703 48.4181 58.1043 46.2361 57.0232 44.1832C55.9791 42.1516 54.0345 40.3145 51.1893 38.6718L44.4828 34.7998L30.3068 59.3534ZM67.7118 90.7041L76.0679 43.2067L84.7143 48.1987L76.9046 87.0696L106.441 60.7427L115.032 65.7027L78.1318 96.7201L67.7118 90.7041Z"
      fill="white" />
    <path
      d="M56.5 80.5981C57.3284 79.1632 59.1632 78.6716 60.5981 79.5C62.033 80.3284 62.5246 82.1632 61.6962 83.5981C60.8677 85.033 59.033 85.5246 57.5981 84.6962C56.1632 83.8677 55.6716 82.033 56.5 80.5981Z"
      fill="url(#paint2_linear_1_2)" />
  </g>
  <defs>
    <linearGradient id="paint0_linear_1_2" x1="15" y1="6.30501" x2="2.14646e-06" y2="24.695"
      gradientUnits="userSpaceOnUse">
      <stop offset="0.197047" stop-color="#EB002B" />
      <stop offset="0.499894" stop-color="#EF47FC" stop-opacity="0.8" />
      <stop offset="0.667377" stop-color="#7413FF" />
    </linearGradient>
    <linearGradient id="paint1_linear_1_2" x1="101" y1="128" x2="128" y2="97"
      gradientUnits="userSpaceOnUse">
      <stop offset="0.197047" stop-color="#EB002B" />
      <stop offset="0.499894" stop-color="#EF47FC" stop-opacity="0.8" />
      <stop offset="0.667377" stop-color="#7413FF" />
    </linearGradient>
    <linearGradient id="paint2_linear_1_2" x1="63.1427" y1="81.0926" x2="56.2082" y2="81.1036"
      gradientUnits="userSpaceOnUse">
      <stop stop-color="#EB002B" />
      <stop offset="0.5" stop-color="#EF47FC" />
      <stop offset="1" stop-color="#7413FF" />
    </linearGradient>
    <clipPath id="clip0_1_2">
      <rect width="128" height="128" rx="15" fill="white" />
    </clipPath>
  </defs>
</svg>